# xmcd
#
# Track frame offsets: 
#        150
#        674
#        13757
#        31656
#        56637
#        75130
#        89617
#        104022
#        127370
#        141008
#        158466
#        180149
#        195693
#        211618
#        229625
#        247595
#        263848
#        282295
#        296109
#        316455
#
# Disc length: 4424 seconds
#
# Revision: 0
# Processed by: cddbd v1.5.2PL0 Copyright (c) Steve Scherf et al.
# Submitted via: ExactAudioCopy v0.99pb4
#
DISCID=03114614
DTITLE=Various Artist - prevue promo 1061A-2
DYEAR=2001
DGENRE=pop
TTITLE0=blank - data
TTITLE1=Tsar - Silver Shifter
TTITLE2=Angie Aparo - Cry
TTITLE3=Delerium feat.  Matthew Sweet - Daylight
TTITLE4=Carly Hennessy - I'm Gonna Blow Your Mind (Really Wanna Kiss Y
TTITLE4=ou)
TTITLE5=Dream - This Is Me
TTITLE6=O Town - Liquid Dreams(Hot Hex Hector Mix)
TTITLE7=NSYNC - This I Promise You(Live Home Video Mix - Applause Tag)
TTITLE8=Amanda - Everybody Doesn't
TTITLE9=K-Ci and JoJo - Wanna Do You Right(Lyric)
TTITLE10=Lyle Lovett - She's Already Made Up Her Mind( Soundtrack "Dr.
TTITLE10=T and The Women")
TTITLE11=K.T. Oslin - Live Close By, Visit Often
TTITLE12=Bill Luther - You Will Always Be Mine
TTITLE13=Kasey Chambers - Cry Like A Baby
TTITLE14=Leslie Satcher (guest vocals by Emmylou Harris and Alison Kra
TTITLE14=uss) - Love Letters From Old Mexico
TTITLE15=John Frusciante - Going Inside
TTITLE16=Rage Against The Machine - How I Could Just Kill A Man(LYRICS
TTITLE16=!)
TTITLE17=Jonathan of Korn - Take It Back(LYRICS!! - "This IS The Clean
TTITLE17=Edit")
TTITLE18=Snake River Conspiracy - Breed(LYRICS?!Movie "Valentine")
TTITLE19=Beautiful Creatures - 1 A.M.(LYRICS  Movie "Valentine")
EXTD=
EXTT0=
EXTT1=
EXTT2=
EXTT3=
EXTT4=
EXTT5=
EXTT6=
EXTT7=
EXTT8=
EXTT9=
EXTT10=
EXTT11=
EXTT12=
EXTT13=
EXTT14=
EXTT15=
EXTT16=
EXTT17=
EXTT18=
EXTT19=
PLAYORDER=
